<mxfile host="app.diagrams.net" modified="2022-12-22T10:27:23.881Z" agent="5.0 (Windows NT 10.0; Win64; x64) AppleWebKit/537.36 (KHTML, like Gecko) Chrome/108.0.0.0 Safari/537.36" etag="0y33rKjZLTHasF_qsOv9" version="20.7.4" type="github">
  <diagram id="kgpKYQtTHZ0yAKxKKP6v" name="Page-1">
    <mxGraphModel dx="1115" dy="585" grid="1" gridSize="10" guides="1" tooltips="1" connect="1" arrows="1" fold="1" page="1" pageScale="1" pageWidth="850" pageHeight="1100" math="0" shadow="0">
      <root>
        <mxCell id="0" />
        <mxCell id="1" parent="0" />
        <mxCell id="3nuBFxr9cyL0pnOWT2aG-1" value=":saveTicketDetail" style="shape=umlLifeline;perimeter=lifelinePerimeter;container=1;collapsible=0;recursiveResize=0;rounded=0;shadow=0;strokeWidth=1;" parent="1" vertex="1">
          <mxGeometry x="120" y="80" width="100" height="490" as="geometry" />
        </mxCell>
        <mxCell id="3nuBFxr9cyL0pnOWT2aG-2" value="" style="points=[];perimeter=orthogonalPerimeter;rounded=0;shadow=0;strokeWidth=1;" parent="3nuBFxr9cyL0pnOWT2aG-1" vertex="1">
          <mxGeometry x="45" y="70" width="10" height="420" as="geometry" />
        </mxCell>
        <mxCell id="3nuBFxr9cyL0pnOWT2aG-3" value="ttsOrderNO,pnr" style="verticalAlign=bottom;startArrow=oval;endArrow=block;startSize=8;shadow=0;strokeWidth=1;" parent="3nuBFxr9cyL0pnOWT2aG-1" target="3nuBFxr9cyL0pnOWT2aG-2" edge="1">
          <mxGeometry relative="1" as="geometry">
            <mxPoint x="-15" y="70" as="sourcePoint" />
          </mxGeometry>
        </mxCell>
        <mxCell id="3PbxS6e7Mrcn0kTWfQdT-10" value="List&amp;lt;TicketDetailParam&amp;gt;" style="html=1;verticalAlign=bottom;endArrow=block;rounded=0;" edge="1" parent="3nuBFxr9cyL0pnOWT2aG-1" target="3PbxS6e7Mrcn0kTWfQdT-2">
          <mxGeometry width="80" relative="1" as="geometry">
            <mxPoint x="55" y="170" as="sourcePoint" />
            <mxPoint x="135" y="170" as="targetPoint" />
          </mxGeometry>
        </mxCell>
        <mxCell id="3nuBFxr9cyL0pnOWT2aG-5" value="ticketDetailMapper" style="shape=umlLifeline;perimeter=lifelinePerimeter;container=1;collapsible=0;recursiveResize=0;rounded=0;shadow=0;strokeWidth=1;" parent="1" vertex="1">
          <mxGeometry x="290" y="80" width="100" height="300" as="geometry" />
        </mxCell>
        <mxCell id="3nuBFxr9cyL0pnOWT2aG-6" value="" style="points=[];perimeter=orthogonalPerimeter;rounded=0;shadow=0;strokeWidth=1;" parent="3nuBFxr9cyL0pnOWT2aG-5" vertex="1">
          <mxGeometry x="45" y="80" width="10" height="160" as="geometry" />
        </mxCell>
        <mxCell id="3PbxS6e7Mrcn0kTWfQdT-1" value="List&amp;lt;TicketDetailParam&amp;gt;" style="html=1;verticalAlign=bottom;endArrow=open;dashed=1;endSize=8;rounded=0;" edge="1" parent="3nuBFxr9cyL0pnOWT2aG-5" target="3nuBFxr9cyL0pnOWT2aG-1">
          <mxGeometry relative="1" as="geometry">
            <mxPoint x="45" y="120" as="sourcePoint" />
            <mxPoint x="-35" y="120" as="targetPoint" />
            <Array as="points" />
          </mxGeometry>
        </mxCell>
        <mxCell id="3nuBFxr9cyL0pnOWT2aG-8" value="ttsOrderNo,pnr" style="verticalAlign=bottom;endArrow=block;entryX=0;entryY=0;shadow=0;strokeWidth=1;" parent="1" source="3nuBFxr9cyL0pnOWT2aG-2" target="3nuBFxr9cyL0pnOWT2aG-6" edge="1">
          <mxGeometry relative="1" as="geometry">
            <mxPoint x="275" y="160" as="sourcePoint" />
          </mxGeometry>
        </mxCell>
        <mxCell id="3PbxS6e7Mrcn0kTWfQdT-2" value="transform" style="shape=umlLifeline;perimeter=lifelinePerimeter;container=1;collapsible=0;recursiveResize=0;rounded=0;shadow=0;strokeWidth=1;" vertex="1" parent="1">
          <mxGeometry x="440" y="80" width="100" height="460" as="geometry" />
        </mxCell>
        <mxCell id="3PbxS6e7Mrcn0kTWfQdT-3" value="" style="points=[];perimeter=orthogonalPerimeter;rounded=0;shadow=0;strokeWidth=1;" vertex="1" parent="3PbxS6e7Mrcn0kTWfQdT-2">
          <mxGeometry x="45" y="80" width="10" height="380" as="geometry" />
        </mxCell>
        <mxCell id="3PbxS6e7Mrcn0kTWfQdT-15" value="ttsOrderNo" style="html=1;verticalAlign=bottom;endArrow=block;rounded=0;fontFamily=Helvetica;" edge="1" parent="3PbxS6e7Mrcn0kTWfQdT-2" target="3PbxS6e7Mrcn0kTWfQdT-13">
          <mxGeometry width="80" relative="1" as="geometry">
            <mxPoint x="45" y="189.5" as="sourcePoint" />
            <mxPoint x="125" y="189.5" as="targetPoint" />
          </mxGeometry>
        </mxCell>
        <mxCell id="3PbxS6e7Mrcn0kTWfQdT-17" value="ttsOrderNo" style="html=1;verticalAlign=bottom;endArrow=block;rounded=0;fontFamily=Helvetica;" edge="1" parent="3PbxS6e7Mrcn0kTWfQdT-2" target="3PbxS6e7Mrcn0kTWfQdT-11">
          <mxGeometry x="0.0036" width="80" relative="1" as="geometry">
            <mxPoint x="50" y="250" as="sourcePoint" />
            <mxPoint x="130" y="250" as="targetPoint" />
            <mxPoint as="offset" />
          </mxGeometry>
        </mxCell>
        <mxCell id="3PbxS6e7Mrcn0kTWfQdT-22" value="originOrderNo" style="html=1;verticalAlign=bottom;endArrow=block;rounded=0;fontFamily=Helvetica;" edge="1" parent="3PbxS6e7Mrcn0kTWfQdT-2" target="3PbxS6e7Mrcn0kTWfQdT-19">
          <mxGeometry width="80" relative="1" as="geometry">
            <mxPoint x="55" y="300" as="sourcePoint" />
            <mxPoint x="135" y="300" as="targetPoint" />
          </mxGeometry>
        </mxCell>
        <mxCell id="3PbxS6e7Mrcn0kTWfQdT-24" value="List&amp;lt;TicketDetailDO&amp;gt;" style="html=1;verticalAlign=bottom;endArrow=open;dashed=1;endSize=8;rounded=0;fontFamily=Helvetica;" edge="1" parent="3PbxS6e7Mrcn0kTWfQdT-2" target="3nuBFxr9cyL0pnOWT2aG-2">
          <mxGeometry relative="1" as="geometry">
            <mxPoint x="45" y="450" as="sourcePoint" />
            <mxPoint x="-35" y="450" as="targetPoint" />
          </mxGeometry>
        </mxCell>
        <mxCell id="3PbxS6e7Mrcn0kTWfQdT-11" value="queryFullInfo&#xa;ByTtsOrderNo" style="shape=umlLifeline;perimeter=lifelinePerimeter;container=1;collapsible=0;recursiveResize=0;rounded=0;shadow=0;strokeWidth=1;" vertex="1" parent="1">
          <mxGeometry x="580" y="80" width="100" height="360" as="geometry" />
        </mxCell>
        <mxCell id="3PbxS6e7Mrcn0kTWfQdT-12" value="" style="points=[];perimeter=orthogonalPerimeter;rounded=0;shadow=0;strokeWidth=1;" vertex="1" parent="3PbxS6e7Mrcn0kTWfQdT-11">
          <mxGeometry x="45" y="80" width="10" height="270" as="geometry" />
        </mxCell>
        <mxCell id="3PbxS6e7Mrcn0kTWfQdT-13" value="getFlightInfoDO" style="shape=umlLifeline;perimeter=lifelinePerimeter;container=1;collapsible=0;recursiveResize=0;rounded=0;shadow=0;strokeWidth=1;" vertex="1" parent="1">
          <mxGeometry x="690" y="80" width="100" height="360" as="geometry" />
        </mxCell>
        <mxCell id="3PbxS6e7Mrcn0kTWfQdT-14" value="" style="points=[];perimeter=orthogonalPerimeter;rounded=0;shadow=0;strokeWidth=1;" vertex="1" parent="3PbxS6e7Mrcn0kTWfQdT-13">
          <mxGeometry x="45" y="80" width="10" height="280" as="geometry" />
        </mxCell>
        <mxCell id="3PbxS6e7Mrcn0kTWfQdT-16" value="List&amp;lt;FlightInfoDO&amp;gt;" style="html=1;verticalAlign=bottom;endArrow=open;dashed=1;endSize=8;rounded=0;fontFamily=Helvetica;" edge="1" parent="3PbxS6e7Mrcn0kTWfQdT-13" target="3PbxS6e7Mrcn0kTWfQdT-2">
          <mxGeometry relative="1" as="geometry">
            <mxPoint x="45" y="219.5" as="sourcePoint" />
            <mxPoint x="-35" y="219.5" as="targetPoint" />
          </mxGeometry>
        </mxCell>
        <mxCell id="3PbxS6e7Mrcn0kTWfQdT-23" value="OrderBaseInfo" style="html=1;verticalAlign=bottom;endArrow=open;dashed=1;endSize=8;rounded=0;fontFamily=Helvetica;" edge="1" parent="3PbxS6e7Mrcn0kTWfQdT-13" target="3PbxS6e7Mrcn0kTWfQdT-2">
          <mxGeometry relative="1" as="geometry">
            <mxPoint x="160" y="320" as="sourcePoint" />
            <mxPoint x="80" y="320" as="targetPoint" />
          </mxGeometry>
        </mxCell>
        <mxCell id="3PbxS6e7Mrcn0kTWfQdT-18" value="OrderInfoDo" style="html=1;verticalAlign=bottom;endArrow=open;dashed=1;endSize=8;rounded=0;fontFamily=Helvetica;" edge="1" parent="1" target="3PbxS6e7Mrcn0kTWfQdT-2">
          <mxGeometry relative="1" as="geometry">
            <mxPoint x="630" y="350" as="sourcePoint" />
            <mxPoint x="560" y="350" as="targetPoint" />
          </mxGeometry>
        </mxCell>
        <mxCell id="3PbxS6e7Mrcn0kTWfQdT-19" value="queryOrderDetail&#xa;ByOrderNo" style="shape=umlLifeline;perimeter=lifelinePerimeter;container=1;collapsible=0;recursiveResize=0;rounded=0;shadow=0;strokeWidth=1;" vertex="1" parent="1">
          <mxGeometry x="810" y="80" width="100" height="360" as="geometry" />
        </mxCell>
        <mxCell id="3PbxS6e7Mrcn0kTWfQdT-20" value="" style="points=[];perimeter=orthogonalPerimeter;rounded=0;shadow=0;strokeWidth=1;" vertex="1" parent="3PbxS6e7Mrcn0kTWfQdT-19">
          <mxGeometry x="45" y="80" width="10" height="280" as="geometry" />
        </mxCell>
        <mxCell id="3PbxS6e7Mrcn0kTWfQdT-25" value="queryOrderDetail&#xa;ByOrderNo" style="shape=umlLifeline;perimeter=lifelinePerimeter;container=1;collapsible=0;recursiveResize=0;rounded=0;shadow=0;strokeWidth=1;" vertex="1" parent="1">
          <mxGeometry x="930" y="80" width="100" height="490" as="geometry" />
        </mxCell>
        <mxCell id="3PbxS6e7Mrcn0kTWfQdT-26" value="" style="points=[];perimeter=orthogonalPerimeter;rounded=0;shadow=0;strokeWidth=1;" vertex="1" parent="3PbxS6e7Mrcn0kTWfQdT-25">
          <mxGeometry x="45" y="80" width="10" height="380" as="geometry" />
        </mxCell>
        <mxCell id="3PbxS6e7Mrcn0kTWfQdT-27" value="dispatch" style="html=1;verticalAlign=bottom;endArrow=block;rounded=0;fontFamily=Helvetica;" edge="1" parent="1">
          <mxGeometry width="80" relative="1" as="geometry">
            <mxPoint x="470" y="340" as="sourcePoint" />
            <mxPoint x="550" y="340" as="targetPoint" />
          </mxGeometry>
        </mxCell>
      </root>
    </mxGraphModel>
  </diagram>
</mxfile>
